<svg width="41" height="20" viewBox="0 0 41 20" fill="none" xmlns="http://www.w3.org/2000/svg">
<rect y="2.5" width="23" height="3" rx="1.5" fill="#111111"/>
<circle cx="4" cy="13.5" r="4" fill="#111111"/>
<path d="M26.0738 15.1994C24.8222 15.1994 23.8308 14.8394 23.0997 14.1194L24.1298 12.3083C24.6837 12.84 25.2708 13.1058 25.8911 13.1058C26.4117 13.1058 26.8271 12.9452 27.1372 12.624C27.4585 12.3028 27.6191 11.8708 27.6191 11.328V3.91754H29.9785V11.3612C29.9785 12.624 29.624 13.5822 28.9151 14.2357C28.2062 14.8782 27.2591 15.1994 26.0738 15.1994ZM37.1119 15H34.7359V5.99446H31.4959V3.91754H40.3353V5.99446H37.1119V15Z" fill="#111111"/>
<path d="M23 17.8745H40.7507V18.2068H23V17.8745Z" fill="#111111"/>
</svg>
