<svg width="40" height="41" viewBox="0 0 40 41" fill="none" xmlns="http://www.w3.org/2000/svg">
<mask id="path-1-inside-1_298_269" fill="white">
<path d="M0 0.616211H40V40.6162H0V0.616211Z"/>
</mask>
<path d="M40 40.6162V37.6162H0V40.6162V43.6162H40V40.6162Z" fill="white" mask="url(#path-1-inside-1_298_269)"/>
<path d="M17 29.6162V23.6162C17 23.0858 17.2107 22.5771 17.5858 22.202C17.9609 21.8269 18.4696 21.6162 19 21.6162H21C21.5304 21.6162 22.0391 21.8269 22.4142 22.202C22.7893 22.5771 23 23.0858 23 23.6162V29.6162M13 20.6162H11L20 11.6162L29 20.6162H27V27.6162C27 28.1466 26.7893 28.6554 26.4142 29.0304C26.0391 29.4055 25.5304 29.6162 25 29.6162H15C14.4696 29.6162 13.9609 29.4055 13.5858 29.0304C13.2107 28.6554 13 28.1466 13 27.6162V20.6162Z" stroke="white" stroke-width="2" stroke-linecap="round" stroke-linejoin="round"/>
</svg>
