<svg width="40" height="39" viewBox="0 0 40 39" fill="none" xmlns="http://www.w3.org/2000/svg">
<rect width="40" height="38.6159" rx="19.3079" fill="white"/>
<path d="M17.916 9.10449C18.1255 7.63195 20.2514 7.63195 20.4609 9.10449C20.6246 10.2542 22.1085 10.6145 22.7812 9.66797C23.6413 8.45719 25.5088 9.48492 25.0244 10.8887C24.6443 11.9896 25.7888 13.0157 26.8281 12.4902C28.1615 11.8158 29.34 13.6074 28.2559 14.6357C27.408 15.4401 27.94 16.8851 29.1084 16.9131C30.6145 16.9496 30.8611 19.0876 29.4092 19.4902C28.2823 19.8031 28.1046 21.3323 29.1221 21.9092C30.4273 22.6495 29.6971 24.6703 28.2334 24.3389C27.0954 24.0813 26.2317 25.3561 26.8623 26.3379C27.667 27.5903 26.1017 29.0458 24.9746 28.0732C24.0942 27.3135 22.7379 28.028 22.8486 29.1855C22.9897 30.6633 20.9308 31.1957 20.3818 29.8164C19.9526 28.7376 18.4253 28.7376 17.9961 29.8164C17.4472 31.1959 15.3873 30.6634 15.5283 29.1855C15.639 28.0281 14.2837 27.314 13.4033 28.0732C12.2763 29.0458 10.71 27.5903 11.5146 26.3379C12.1454 25.3561 11.2817 24.0811 10.1436 24.3389C8.67993 24.6701 7.95033 22.6494 9.25586 21.9092C10.2732 21.3321 10.0949 19.8029 8.96777 19.4902C7.51567 19.0876 7.76306 16.9492 9.26953 16.9131C10.4377 16.885 10.9695 15.4401 10.1221 14.6357C9.0379 13.6074 10.2154 11.8158 11.5488 12.4902C12.5883 13.016 13.7327 11.9897 13.3525 10.8887C12.8683 9.48498 14.7357 8.45722 15.5957 9.66797C16.2684 10.6147 17.7523 10.2543 17.916 9.10449ZM19.2217 16.3633C17.5349 16.3633 16.1672 17.7303 16.167 19.417C16.167 21.1039 17.5347 22.4717 19.2217 22.4717C20.9084 22.4714 22.2754 21.1038 22.2754 19.417C22.2752 17.7304 20.9082 16.3635 19.2217 16.3633Z" fill="#B20DFF"/>
</svg>
