<svg width="40" height="41" viewBox="0 0 40 41" fill="none" xmlns="http://www.w3.org/2000/svg">
<path d="M16 17.6162H24M16 21.6162H22M26 12.6162C26.7956 12.6162 27.5587 12.9323 28.1213 13.4949C28.6839 14.0575 29 14.8206 29 15.6162V23.6162C29 24.4119 28.6839 25.1749 28.1213 25.7375C27.5587 26.3001 26.7956 26.6162 26 26.6162H21L16 29.6162V26.6162H14C13.2044 26.6162 12.4413 26.3001 11.8787 25.7375C11.3161 25.1749 11 24.4119 11 23.6162V15.6162C11 14.8206 11.3161 14.0575 11.8787 13.4949C12.4413 12.9323 13.2044 12.6162 14 12.6162H26Z" stroke="white" stroke-width="2" stroke-linecap="round" stroke-linejoin="round"/>
</svg>
