<svg width="40" height="41" viewBox="0 0 40 41" fill="none" xmlns="http://www.w3.org/2000/svg">
<path d="M29 29.6162L23 23.6162M11 18.6162C11 19.5355 11.1811 20.4457 11.5328 21.295C11.8846 22.1443 12.4002 22.9159 13.0503 23.566C13.7003 24.216 14.4719 24.7316 15.3212 25.0834C16.1705 25.4352 17.0807 25.6162 18 25.6162C18.9193 25.6162 19.8295 25.4352 20.6788 25.0834C21.5281 24.7316 22.2997 24.216 22.9497 23.566C23.5998 22.9159 24.1154 22.1443 24.4672 21.295C24.8189 20.4457 25 19.5355 25 18.6162C25 17.697 24.8189 16.7867 24.4672 15.9374C24.1154 15.0881 23.5998 14.3165 22.9497 13.6665C22.2997 13.0165 21.5281 12.5008 20.6788 12.1491C19.8295 11.7973 18.9193 11.6162 18 11.6162C17.0807 11.6162 16.1705 11.7973 15.3212 12.1491C14.4719 12.5008 13.7003 13.0165 13.0503 13.6665C12.4002 14.3165 11.8846 15.0881 11.5328 15.9374C11.1811 16.7867 11 17.697 11 18.6162Z" stroke="white" stroke-width="2" stroke-linecap="round" stroke-linejoin="round"/>
</svg>
