<svg width="40" height="41" viewBox="0 0 40 41" fill="none" xmlns="http://www.w3.org/2000/svg">
<path d="M29 29.5L23 23.5M11 18.5C11 19.4193 11.1811 20.3295 11.5328 21.1788C11.8846 22.0281 12.4002 22.7997 13.0503 23.4497C13.7003 24.0998 14.4719 24.6154 15.3212 24.9672C16.1705 25.3189 17.0807 25.5 18 25.5C18.9193 25.5 19.8295 25.3189 20.6788 24.9672C21.5281 24.6154 22.2997 24.0998 22.9497 23.4497C23.5998 22.7997 24.1154 22.0281 24.4672 21.1788C24.8189 20.3295 25 19.4193 25 18.5C25 17.5807 24.8189 16.6705 24.4672 15.8212C24.1154 14.9719 23.5998 14.2003 22.9497 13.5503C22.2997 12.9002 21.5281 12.3846 20.6788 12.0328C19.8295 11.6811 18.9193 11.5 18 11.5C17.0807 11.5 16.1705 11.6811 15.3212 12.0328C14.4719 12.3846 13.7003 12.9002 13.0503 13.5503C12.4002 14.2003 11.8846 14.9719 11.5328 15.8212C11.1811 16.6705 11 17.5807 11 18.5Z" stroke="#B20DFF" stroke-width="2" stroke-linecap="round" stroke-linejoin="round"/>
</svg>
