<svg width="40" height="41" viewBox="0 0 40 41" fill="none" xmlns="http://www.w3.org/2000/svg">
<path d="M18.325 12.9332C18.751 11.1772 21.249 11.1772 21.675 12.9332C21.7389 13.197 21.8642 13.442 22.0407 13.6482C22.2172 13.8544 22.4399 14.0161 22.6907 14.12C22.9414 14.2238 23.2132 14.2671 23.4838 14.2461C23.7544 14.2251 24.0162 14.1405 24.248 13.9992C25.791 13.0592 27.558 14.8252 26.618 16.3692C26.4769 16.6009 26.3924 16.8625 26.3715 17.133C26.3506 17.4034 26.3938 17.675 26.4975 17.9256C26.6013 18.1762 26.7627 18.3988 26.9687 18.5753C27.1747 18.7517 27.4194 18.8771 27.683 18.9412C29.439 19.3672 29.439 21.8652 27.683 22.2912C27.4192 22.3551 27.1742 22.4804 26.968 22.6569C26.7618 22.8334 26.6001 23.0561 26.4963 23.3069C26.3924 23.5576 26.3491 23.8294 26.3701 24.1C26.3911 24.3706 26.4757 24.6325 26.617 24.8642C27.557 26.4072 25.791 28.1742 24.247 27.2342C24.0153 27.0931 23.7537 27.0087 23.4832 26.9877C23.2128 26.9668 22.9412 27.01 22.6906 27.1137C22.44 27.2175 22.2174 27.379 22.0409 27.5849C21.8645 27.7909 21.7391 28.0356 21.675 28.2992C21.249 30.0552 18.751 30.0552 18.325 28.2992C18.2611 28.0354 18.1358 27.7904 17.9593 27.5842C17.7828 27.378 17.5601 27.2164 17.3093 27.1125C17.0586 27.0086 16.7868 26.9654 16.5162 26.9863C16.2456 27.0073 15.9838 27.0919 15.752 27.2332C14.209 28.1732 12.442 26.4072 13.382 24.8632C13.5231 24.6316 13.6076 24.3699 13.6285 24.0994C13.6494 23.829 13.6062 23.5574 13.5025 23.3068C13.3987 23.0562 13.2373 22.8336 13.0313 22.6572C12.8253 22.4807 12.5806 22.3553 12.317 22.2912C10.561 21.8652 10.561 19.3672 12.317 18.9412C12.5808 18.8773 12.8258 18.752 13.032 18.5755C13.2382 18.399 13.3999 18.1763 13.5037 17.9256C13.6076 17.6748 13.6509 17.403 13.6299 17.1324C13.6089 16.8618 13.5243 16.6 13.383 16.3682C12.443 14.8252 14.209 13.0582 15.753 13.9982C16.753 14.6062 18.049 14.0682 18.325 12.9332Z" stroke="white" stroke-width="2" stroke-linecap="round" stroke-linejoin="round"/>
<path d="M17 20.6162C17 21.4119 17.3161 22.1749 17.8787 22.7375C18.4413 23.3001 19.2044 23.6162 20 23.6162C20.7956 23.6162 21.5587 23.3001 22.1213 22.7375C22.6839 22.1749 23 21.4119 23 20.6162C23 19.8206 22.6839 19.0575 22.1213 18.4949C21.5587 17.9323 20.7956 17.6162 20 17.6162C19.2044 17.6162 18.4413 17.9323 17.8787 18.4949C17.3161 19.0575 17 19.8206 17 20.6162Z" stroke="white" stroke-width="2" stroke-linecap="round" stroke-linejoin="round"/>
</svg>
