<svg width="278" height="278" viewBox="0 0 278 278" fill="none" xmlns="http://www.w3.org/2000/svg">
<rect x="2.5" y="2.5" width="273" height="273" rx="29.5" stroke="white" stroke-width="5"/>
<path d="M220.083 23.167C228.946 23.1665 237.475 26.5531 243.924 32.6339C250.373 38.7146 254.255 47.0299 254.775 55.8783L254.833 57.917V220.084C254.833 228.947 251.447 237.476 245.366 243.925C239.285 250.374 230.97 254.256 222.121 254.776L220.083 254.834H57.916C49.0977 254.832 40.6097 251.478 34.1721 245.452C27.7346 239.425 23.8291 231.176 23.2471 222.377L23.166 220.084V57.917C23.1655 49.0533 26.5521 40.5244 32.6329 34.0755C38.7137 27.6265 47.0289 23.7449 55.8773 23.2249L57.916 23.167H220.083ZM150.583 162.167H127.416L126.061 162.248C123.245 162.583 120.651 163.939 118.768 166.059C116.885 168.178 115.846 170.915 115.846 173.75C115.846 176.586 116.885 179.322 118.768 181.442C120.651 183.562 123.245 184.918 126.061 185.253L127.416 185.334H150.583L151.938 185.253C154.753 184.918 157.348 183.562 159.231 181.442C161.113 179.322 162.153 176.586 162.153 173.75C162.153 170.915 161.113 168.178 159.231 166.059C157.348 163.939 154.753 162.583 151.938 162.248L150.583 162.167ZM173.749 127.417H104.249L102.894 127.498C100.079 127.833 97.484 129.189 95.6014 131.309C93.7187 133.428 92.6789 136.165 92.6789 139C92.6789 141.836 93.7187 144.572 95.6014 146.692C97.484 148.812 100.079 150.168 102.894 150.503L104.249 150.584H173.749L175.105 150.503C177.92 150.168 180.515 148.812 182.397 146.692C184.28 144.572 185.32 141.836 185.32 139C185.32 136.165 184.28 133.428 182.397 131.309C180.515 129.189 177.92 127.833 175.105 127.498L173.749 127.417ZM162.166 92.667H115.833L114.477 92.7481C111.662 93.083 109.067 94.4387 107.185 96.5586C105.302 98.6785 104.262 101.415 104.262 104.25C104.262 107.085 105.302 109.822 107.185 111.942C109.067 114.062 111.662 115.418 114.477 115.753L115.833 115.834H162.166L163.521 115.753C166.337 115.418 168.931 114.062 170.814 111.942C172.697 109.822 173.736 107.085 173.736 104.25C173.736 101.415 172.697 98.6785 170.814 96.5586C168.931 94.4387 166.337 93.083 163.521 92.7481L162.166 92.667Z" fill="white"/>
</svg>
